<?xml version="1.0" encoding="UTF-8" standalone="no"?>
<!-- Created with Inkscape (http://www.inkscape.org/) -->
<svg width="100mm" height="100mm" viewBox="0 0 100 100" version="1.1" id="svg5" xmlns="http://www.w3.org/2000/svg" xmlns:svg="http://www.w3.org/2000/svg">
  <defs id="defs2"/>
  <g id="layer1" style="display:inline">
    <path style="fill:#202225;fill-opacity:1;stroke-width:0.543477" d="M 0,49.999992 V 0 H 50.000005 100 V 49.999992 100.00001 H 50.000005 0 Z" id="path1182"/>
    <rect style="fill:#977133;fill-opacity:1;stroke-width:0.268607" id="rect1682" width="15" height="99.999985" x="8.6962359e-08" y="1.1821709e-05"/>
    <path id="rect1985" style="fill:#ffccaa;fill-opacity:1;stroke-width:0.247378" d="m 59.614232,30.50875 20.646339,56.725322 8.4572,-3.07817 L 68.071437,27.43058 Z"/>
    <path id="rect2108" style="fill:#000000;fill-opacity:1;stroke-width:0.210829" d="m 44.310136,23.54703 4.027691,11.06599 22.46652,-8.17714 10.014534,-7.83886 -1.33175,-3.65896 -12.710476,0.43183 z"/>
    <rect style="fill:#ff0000;fill-opacity:1;stroke-width:0.257542" id="rect3781" width="9" height="21.159571" x="45.584351" y="88.264511" transform="rotate(-20)"/>
    <path id="rect3928" style="fill:#999999;fill-opacity:1;stroke-width:0.201166" d="m 15,29.6148 v 2.99578 h 12.987945 l 7.088227,4.09245 -0.666764,1.15496 2.594805,1.49815 0.666761,-1.15497 1.498151,-2.59428 0.830876,-1.43932 -2.594804,-1.49816 -0.830873,1.43933 -7.783889,-4.49394 z"/>
  </g>
</svg>